<svg id="Layer_1" data-name="Layer 1" xmlns="http://www.w3.org/2000/svg" viewBox="0 0 202.85 37.95"><defs><style>.cls-1{fill:#313041;}.cls-2{fill:#ff604a;}.cls-3{fill:#fff;}</style></defs><path class="cls-1" d="M59,15V10.74H77.44V15H70.82V32.56h-5.2V15Z" transform="translate(-1 -1)"/><path class="cls-1" d="M80,32.56V10.74h9a9.56,9.56,0,0,1,4.23.88A6.49,6.49,0,0,1,96,14.14,7.51,7.51,0,0,1,97,18a7.11,7.11,0,0,1-1,3.85,6.24,6.24,0,0,1-2.82,2.41,10.36,10.36,0,0,1-4.31.82h-5.7V20.94H87.9a5.57,5.57,0,0,0,2-.31,2.51,2.51,0,0,0,1.22-1A3.07,3.07,0,0,0,91.53,18a3.22,3.22,0,0,0-.41-1.68,2.56,2.56,0,0,0-1.23-1,5.28,5.28,0,0,0-2-.33H85.3V32.56Zm12.28-10,5.43,10H92l-5.33-10Z" transform="translate(-1 -1)"/><path class="cls-1" d="M104.6,32.56H98.94l7.36-21.82h7l7.36,21.82H115l-5.12-16.32h-.17ZM103.85,24h11.84v4H103.85Z" transform="translate(-1 -1)"/><path class="cls-1" d="M128.31,10.74V32.56H123V10.74Z" transform="translate(-1 -1)"/><path class="cls-1" d="M131.61,32.56V10.74h9a8.82,8.82,0,0,1,4.24,1,6.75,6.75,0,0,1,2.75,2.65,7.79,7.79,0,0,1,1,4,7.7,7.7,0,0,1-1,3.95,6.67,6.67,0,0,1-2.8,2.61,9.44,9.44,0,0,1-4.33.93H134.9V21.63h4.58a4.42,4.42,0,0,0,2-.41,2.87,2.87,0,0,0,1.22-1.17,3.51,3.51,0,0,0,.42-1.75,3.46,3.46,0,0,0-.42-1.75,2.8,2.8,0,0,0-1.23-1.15,4.41,4.41,0,0,0-2-.4h-2.6V32.56Z" transform="translate(-1 -1)"/><path class="cls-1" d="M163,17.29a2.5,2.5,0,0,0-.94-1.83,3.77,3.77,0,0,0-2.38-.66,4.72,4.72,0,0,0-1.71.27,2.28,2.28,0,0,0-1,.73,1.8,1.8,0,0,0-.35,1.06,1.45,1.45,0,0,0,.2.86,2,2,0,0,0,.63.66,4.4,4.4,0,0,0,1,.49,10.25,10.25,0,0,0,1.34.38l1.88.42a13.71,13.71,0,0,1,2.86.94,7.87,7.87,0,0,1,2.09,1.4,5.49,5.49,0,0,1,1.28,1.86,6.33,6.33,0,0,1,.45,2.37,6.16,6.16,0,0,1-1,3.54,6.44,6.44,0,0,1-3,2.27,12.24,12.24,0,0,1-4.66.79,12.69,12.69,0,0,1-4.78-.82,6.8,6.8,0,0,1-3.16-2.49,7.61,7.61,0,0,1-1.16-4.23h5.05a3.34,3.34,0,0,0,.56,1.76,3.21,3.21,0,0,0,1.38,1.06,5.38,5.38,0,0,0,2,.36,5.16,5.16,0,0,0,1.82-.28,2.73,2.73,0,0,0,1.16-.8,1.92,1.92,0,0,0,.41-1.18,1.66,1.66,0,0,0-.38-1.06,3,3,0,0,0-1.15-.76,11.57,11.57,0,0,0-2-.6l-2.28-.54a9.91,9.91,0,0,1-4.47-2.1,5,5,0,0,1-1.62-3.94,5.93,5.93,0,0,1,1.09-3.55,7.22,7.22,0,0,1,3-2.37,10.82,10.82,0,0,1,4.42-.85,10.47,10.47,0,0,1,4.4.85A6.89,6.89,0,0,1,167,13.71a6.36,6.36,0,0,1,1,3.58Z" transform="translate(-1 -1)"/><path class="cls-1" d="M171,32.56V10.74H186.2V15h-9.94V19.5h9.16v4.3h-9.16v4.48h9.94v4.28Z" transform="translate(-1 -1)"/><path class="cls-1" d="M189.5,32.56V10.74h5.27V28.28h9.08v4.28Z" transform="translate(-1 -1)"/><path class="cls-2" d="M6.74,31.11a11,11,0,0,1,10.51,7.8,11,11,0,0,1,21,0,11,11,0,0,1,15.82-6.48,27.05,27.05,0,0,0,.42-4.71A26.77,26.77,0,0,0,1,27.76a27.08,27.08,0,0,0,.42,4.72A11,11,0,0,1,6.74,31.11Z" transform="translate(-1 -1)"/><path class="cls-3" d="M42.55,9.11a.7.7,0,0,1,.31,1.29L20.48,25.08A17.14,17.14,0,0,1,9.41,27.77a.66.66,0,0,1-.3-1.21l24-15.72C36.12,8.84,40.21,8.87,42.55,9.11Z" transform="translate(-1 -1)"/><path class="cls-3" d="M29,14.32,16.71,13.21a3,3,0,0,0-1.92.49l-1,.64,8.61,4.32Z" transform="translate(-1 -1)"/><path class="cls-3" d="M30.4,17.54l2.63,4a3,3,0,0,1,.34,2.61l-.13.37L25,19.82Z" transform="translate(-1 -1)"/><polygon class="cls-3" points="15.14 21.78 10.59 19.78 9.01 20.82 11.58 24.74 15.14 21.78"/></svg>